# xmcd
#
# Track frame offsets:
#	182
#	13625
#	26715
#	41580
#	54252
#	67480
#	85775
#	104057
#	120175
#	134350
#	153825
#	171062
#	187222
#	201940
#	220197
#	237702
#	253512
#	267620
#
# Disc length: 3793 seconds
# Revision: 1
# Processed by: cddbd v1.5.2PL0 Copyright (c) Steve Scherf et al.
# Submitted via: dBpowerAMP V12.0
#
DISCID=0c0ecf12
DTITLE=Lobo - The best of Lobo
DYEAR=1993
DGENRE=Pop/Rock
TTITLE0=Me and you and a dog named Boo
TTITLE1=She didn't do magic
TTITLE2=I'm the only one
TTITLE3=California kid and reemo
TTITLE4=A simple man
TTITLE5=I'd love you to want me
TTITLE6=A big red kite
TTITLE7=Don't expect me to be your friend
TTITLE8=It sure took a long long time
TTITLE9=How can I tell her
TTITLE10=Rock and roll days
TTITLE11=Goodbye is just another word
TTITLE12=There ain't no way
TTITLE13=Love me for what I am
TTITLE14=Standing at the end of the line
TTITLE15=Rings
TTITLE16=Don't tell me goodnight
TTITLE17=Would I still have you
EXTD=
EXTT0=
EXTT1=
EXTT2=
EXTT3=
EXTT4=
EXTT5=
EXTT6=
EXTT7=
EXTT8=
EXTT9=
EXTT10=
EXTT11=
EXTT12=
EXTT13=
EXTT14=
EXTT15=
EXTT16=
EXTT17=
PLAYORDER=
